<svg xmlns="http://www.w3.org/2000/svg" width="800" height="671" viewBox="0 0 800 671" font-family="Arial, &#39;Liberation Sans&#39;, Arimo, Helvetica, sans-serif" font-size="10" role="img"><title>Boring log</title><defs><pattern id="blv1x12prz-SM" patternUnits="userSpaceOnUse" width="104" height="93" patternTransform="translate(48 110.6) scale(0.38462)"><circle cx="12" cy="21" r="1"/><circle cx="2" cy="49" r="1"/><circle cx="94" cy="27" r="1"/><circle cx="34" cy="19" r="1"/><circle cx="43" cy="25" r="1"/><circle cx="24" cy="85" r="1"/><circle cx="9" cy="73" r="1"/><circle cx="74" cy="24" r="1"/><circle cx="45" cy="43" r="1"/><circle cx="9" cy="14" r="1"/><circle cx="22" cy="33" r="1"/><circle cx="57" cy="26" r="1"/><circle cx="90" cy="5" r="1"/><circle cx="96" cy="36" r="1"/><circle cx="60" cy="36" r="1"/><circle cx="91" cy="21" r="1"/><circle cx="8" cy="76" r="1"/><circle cx="22" cy="41" r="1"/><circle cx="37" cy="88" r="1"/><circle cx="62" cy="1" r="1"/><circle cx="67" cy="51" r="1"/><circle cx="91" cy="38" r="1"/><circle cx="54" cy="43" r="1"/><circle cx="40" cy="81" r="1"/><circle cx="8" cy="2" r="1"/><circle cx="42" cy="30" r="1"/><circle cx="11" cy="3" r="1"/><circle cx="56" cy="46" r="1"/><circle cx="6" cy="5" r="1"/><circle cx="65" cy="46" r="1"/><circle cx="59" cy="10" r="1"/><circle cx="47" cy="1" r="1"/><circle cx="50" cy="69" r="1"/><circle cx="24" cy="30" r="1"/><circle cx="43" cy="40" r="1"/><circle cx="48" cy="39" r="1"/><circle cx="85" cy="61" r="1"/><circle cx="89" cy="38" r="1"/><circle cx="75" cy="80" r="1"/><circle cx="6" cy="35" r="1"/><circle cx="82" cy="2" r="1"/><circle cx="71" cy="55" r="1"/><circle cx="82" cy="84" r="1"/><circle cx="98" cy="8" r="1"/><circle cx="49" cy="81" r="1"/><circle cx="75" cy="82" r="1"/><circle cx="88" cy="78" r="1"/><circle cx="87" cy="63" r="1"/><circle cx="97" cy="80" r="1"/><circle cx="71" cy="27" r="1"/><circle cx="99" cy="82" r="1"/><circle cx="101" cy="29" r="1"/><circle cx="6" cy="64" r="1"/><circle cx="22" cy="71" r="1"/><circle cx="24" cy="24" r="1"/><circle cx="31" cy="60" r="1"/><circle cx="40" cy="83" r="1"/><circle cx="54" cy="83" r="1"/><circle cx="50" cy="13" r="1"/><circle cx="3" cy="53" r="1"/><circle cx="48" cy="8" r="1"/><circle cx="32" cy="3" r="1"/><circle cx="13" cy="49" r="1"/><circle cx="48" cy="29" r="1"/><circle cx="21" cy="78" r="1"/><circle cx="94" cy="62" r="1"/><circle cx="99" cy="32" r="1"/><circle cx="81" cy="90" r="1"/><circle cx="54" cy="4" r="1"/><circle cx="53" cy="89" r="1"/><circle cx="18" cy="31" r="1"/><circle cx="76" cy="36" r="1"/><circle cx="29" cy="66" r="1"/><circle cx="91" cy="18" r="1"/><circle cx="32" cy="24" r="1"/><circle cx="96" cy="27" r="1"/><circle cx="72" cy="72" r="1"/><circle cx="87" cy="49" r="1"/><circle cx="35" cy="58" r="1"/><circle cx="24" cy="64" r="1"/><circle cx="101" cy="43" r="1"/><circle cx="57" cy="26" r="1"/><circle cx="49" cy="32" r="1"/><circle cx="9" cy="88" r="1"/><circle cx="16" cy="11" r="1"/><circle cx="42" cy="30" r="1"/><circle cx="66" cy="24" r="1"/><circle cx="43" cy="42" r="1"/><circle cx="84" cy="4" r="1"/><circle cx="102" cy="55" r="1"/><circle cx="39" cy="82" r="1"/><circle cx="1" cy="91" r="1"/><circle cx="71" cy="20" r="1"/><circle cx="72" cy="74" r="1"/><circle cx="57" cy="24" r="1"/><circle cx="85" cy="39" r="1"/><circle cx="91" cy="44" r="1"/><circle cx="69" cy="64" r="1"/><circle cx="60" cy="17" r="1"/><circle cx="3" cy="3" r="1"/><circle cx="84" cy="89" r="1"/><circle cx="93" cy="38" r="1"/><circle cx="72" cy="71" r="1"/><circle cx="91" cy="91" r="1"/><circle cx="26" cy="24" r="1"/><circle cx="5" cy="64" r="1"/><circle cx="18" cy="18" r="1"/><circle cx="1" cy="76" r="1"/><circle cx="29" cy="5" r="1"/><circle cx="82" cy="73" r="1"/><circle cx="44" cy="11" r="1"/><circle cx="82" cy="60" r="1"/><circle cx="19" cy="69" r="1"/><circle cx="23" cy="45" r="1"/><circle cx="83" cy="71" r="1"/><circle cx="14" cy="14" r="1"/><circle cx="60" cy="45" r="1"/><circle cx="2" cy="44" r="1"/><circle cx="36" cy="63" r="1"/><circle cx="4" cy="21" r="1"/><circle cx="54" cy="17" r="1"/><circle cx="13" cy="82" r="1"/><circle cx="53" cy="11" r="1"/><circle cx="15" cy="68" r="1"/><circle cx="76" cy="72" r="1"/><circle cx="38" cy="1" r="1"/><circle cx="3" cy="69" r="1"/><circle cx="22" cy="65" r="1"/><circle cx="97" cy="42" r="1"/><circle cx="14" cy="29" r="1"/><circle cx="96" cy="2" r="1"/><circle cx="102" cy="39" r="1"/><circle cx="100" cy="42" r="1"/><circle cx="72" cy="76" r="1"/><circle cx="64" cy="37" r="1"/><circle cx="9" cy="25" r="1"/><circle cx="34" cy="51" r="1"/><circle cx="32" cy="85" r="1"/><circle cx="71" cy="13" r="1"/><circle cx="24" cy="60" r="1"/><circle cx="80" cy="37" r="1"/><circle cx="19" cy="27" r="1"/><circle cx="65" cy="59" r="1"/><circle cx="11" cy="78" r="1"/><circle cx="44" cy="45" r="1"/><circle cx="62" cy="63" r="1"/><circle cx="63" cy="41" r="1"/><circle cx="17" cy="83" r="1"/><circle cx="10" cy="72" r="1"/><circle cx="97" cy="18" r="1"/><line x1="1" x2="1" y1="0" y2="93" stroke="black" stroke-width="2"/><line x1="33" x2="33" y1="0" y2="93" stroke="black" stroke-width="4"/><line x1="67" x2="67" y1="0" y2="93" stroke="black" stroke-width="4"/><line x1="103" x2="103" y1="0" y2="93" stroke="black" stroke-width="2"/></pattern><pattern id="blv1x12prz-legend-SM" patternUnits="userSpaceOnUse" width="104" height="93" patternTransform="translate(10 638.6) scale(0.38462)"><circle cx="12" cy="21" r="1"/><circle cx="2" cy="49" r="1"/><circle cx="94" cy="27" r="1"/><circle cx="34" cy="19" r="1"/><circle cx="43" cy="25" r="1"/><circle cx="24" cy="85" r="1"/><circle cx="9" cy="73" r="1"/><circle cx="74" cy="24" r="1"/><circle cx="45" cy="43" r="1"/><circle cx="9" cy="14" r="1"/><circle cx="22" cy="33" r="1"/><circle cx="57" cy="26" r="1"/><circle cx="90" cy="5" r="1"/><circle cx="96" cy="36" r="1"/><circle cx="60" cy="36" r="1"/><circle cx="91" cy="21" r="1"/><circle cx="8" cy="76" r="1"/><circle cx="22" cy="41" r="1"/><circle cx="37" cy="88" r="1"/><circle cx="62" cy="1" r="1"/><circle cx="67" cy="51" r="1"/><circle cx="91" cy="38" r="1"/><circle cx="54" cy="43" r="1"/><circle cx="40" cy="81" r="1"/><circle cx="8" cy="2" r="1"/><circle cx="42" cy="30" r="1"/><circle cx="11" cy="3" r="1"/><circle cx="56" cy="46" r="1"/><circle cx="6" cy="5" r="1"/><circle cx="65" cy="46" r="1"/><circle cx="59" cy="10" r="1"/><circle cx="47" cy="1" r="1"/><circle cx="50" cy="69" r="1"/><circle cx="24" cy="30" r="1"/><circle cx="43" cy="40" r="1"/><circle cx="48" cy="39" r="1"/><circle cx="85" cy="61" r="1"/><circle cx="89" cy="38" r="1"/><circle cx="75" cy="80" r="1"/><circle cx="6" cy="35" r="1"/><circle cx="82" cy="2" r="1"/><circle cx="71" cy="55" r="1"/><circle cx="82" cy="84" r="1"/><circle cx="98" cy="8" r="1"/><circle cx="49" cy="81" r="1"/><circle cx="75" cy="82" r="1"/><circle cx="88" cy="78" r="1"/><circle cx="87" cy="63" r="1"/><circle cx="97" cy="80" r="1"/><circle cx="71" cy="27" r="1"/><circle cx="99" cy="82" r="1"/><circle cx="101" cy="29" r="1"/><circle cx="6" cy="64" r="1"/><circle cx="22" cy="71" r="1"/><circle cx="24" cy="24" r="1"/><circle cx="31" cy="60" r="1"/><circle cx="40" cy="83" r="1"/><circle cx="54" cy="83" r="1"/><circle cx="50" cy="13" r="1"/><circle cx="3" cy="53" r="1"/><circle cx="48" cy="8" r="1"/><circle cx="32" cy="3" r="1"/><circle cx="13" cy="49" r="1"/><circle cx="48" cy="29" r="1"/><circle cx="21" cy="78" r="1"/><circle cx="94" cy="62" r="1"/><circle cx="99" cy="32" r="1"/><circle cx="81" cy="90" r="1"/><circle cx="54" cy="4" r="1"/><circle cx="53" cy="89" r="1"/><circle cx="18" cy="31" r="1"/><circle cx="76" cy="36" r="1"/><circle cx="29" cy="66" r="1"/><circle cx="91" cy="18" r="1"/><circle cx="32" cy="24" r="1"/><circle cx="96" cy="27" r="1"/><circle cx="72" cy="72" r="1"/><circle cx="87" cy="49" r="1"/><circle cx="35" cy="58" r="1"/><circle cx="24" cy="64" r="1"/><circle cx="101" cy="43" r="1"/><circle cx="57" cy="26" r="1"/><circle cx="49" cy="32" r="1"/><circle cx="9" cy="88" r="1"/><circle cx="16" cy="11" r="1"/><circle cx="42" cy="30" r="1"/><circle cx="66" cy="24" r="1"/><circle cx="43" cy="42" r="1"/><circle cx="84" cy="4" r="1"/><circle cx="102" cy="55" r="1"/><circle cx="39" cy="82" r="1"/><circle cx="1" cy="91" r="1"/><circle cx="71" cy="20" r="1"/><circle cx="72" cy="74" r="1"/><circle cx="57" cy="24" r="1"/><circle cx="85" cy="39" r="1"/><circle cx="91" cy="44" r="1"/><circle cx="69" cy="64" r="1"/><circle cx="60" cy="17" r="1"/><circle cx="3" cy="3" r="1"/><circle cx="84" cy="89" r="1"/><circle cx="93" cy="38" r="1"/><circle cx="72" cy="71" r="1"/><circle cx="91" cy="91" r="1"/><circle cx="26" cy="24" r="1"/><circle cx="5" cy="64" r="1"/><circle cx="18" cy="18" r="1"/><circle cx="1" cy="76" r="1"/><circle cx="29" cy="5" r="1"/><circle cx="82" cy="73" r="1"/><circle cx="44" cy="11" r="1"/><circle cx="82" cy="60" r="1"/><circle cx="19" cy="69" r="1"/><circle cx="23" cy="45" r="1"/><circle cx="83" cy="71" r="1"/><circle cx="14" cy="14" r="1"/><circle cx="60" cy="45" r="1"/><circle cx="2" cy="44" r="1"/><circle cx="36" cy="63" r="1"/><circle cx="4" cy="21" r="1"/><circle cx="54" cy="17" r="1"/><circle cx="13" cy="82" r="1"/><circle cx="53" cy="11" r="1"/><circle cx="15" cy="68" r="1"/><circle cx="76" cy="72" r="1"/><circle cx="38" cy="1" r="1"/><circle cx="3" cy="69" r="1"/><circle cx="22" cy="65" r="1"/><circle cx="97" cy="42" r="1"/><circle cx="14" cy="29" r="1"/><circle cx="96" cy="2" r="1"/><circle cx="102" cy="39" r="1"/><circle cx="100" cy="42" r="1"/><circle cx="72" cy="76" r="1"/><circle cx="64" cy="37" r="1"/><circle cx="9" cy="25" r="1"/><circle cx="34" cy="51" r="1"/><circle cx="32" cy="85" r="1"/><circle cx="71" cy="13" r="1"/><circle cx="24" cy="60" r="1"/><circle cx="80" cy="37" r="1"/><circle cx="19" cy="27" r="1"/><circle cx="65" cy="59" r="1"/><circle cx="11" cy="78" r="1"/><circle cx="44" cy="45" r="1"/><circle cx="62" cy="63" r="1"/><circle cx="63" cy="41" r="1"/><circle cx="17" cy="83" r="1"/><circle cx="10" cy="72" r="1"/><circle cx="97" cy="18" r="1"/><line x1="1" x2="1" y1="0" y2="93" stroke="black" stroke-width="2"/><line x1="33" x2="33" y1="0" y2="93" stroke="black" stroke-width="4"/><line x1="67" x2="67" y1="0" y2="93" stroke="black" stroke-width="4"/><line x1="103" x2="103" y1="0" y2="93" stroke="black" stroke-width="2"/></pattern></defs><rect width="100%" height="100%" fill="#fff"/><rect x="10" y="10" width="780" height="34.6" fill="none" stroke="#000" stroke-width="1"/><text x="14" y="29" font-size="15" font-weight="bold">Boring log</text><text x="32.5" y="106.6" font-weight="bold" transform="rotate(-90 32.5 106.6)">Depth (m)</text><text x="65.5" y="106.6" font-weight="bold" transform="rotate(-90 65.5 106.6)">Graphic</text><text x="77.5" y="106.6" font-weight="bold" transform="rotate(-90 77.5 106.6)">log</text><text x="439" y="104.6" text-anchor="middle" font-weight="bold">Material description</text><line x1="43" y1="110.6" x2="48" y2="110.6" stroke="#000" stroke-width="0.75"/><text x="41" y="119.6" text-anchor="end">0.0</text><line x1="45.5" y1="120.6" x2="48" y2="120.6" stroke="#000" stroke-width="0.5"/><line x1="45.5" y1="130.6" x2="48" y2="130.6" stroke="#000" stroke-width="0.5"/><line x1="45.5" y1="140.6" x2="48" y2="140.6" stroke="#000" stroke-width="0.5"/><line x1="45.5" y1="150.6" x2="48" y2="150.6" stroke="#000" stroke-width="0.5"/><line x1="43" y1="160.6" x2="48" y2="160.6" stroke="#000" stroke-width="0.75"/><text x="41" y="164.1" text-anchor="end">0.5</text><line x1="45.5" y1="170.6" x2="48" y2="170.6" stroke="#000" stroke-width="0.5"/><line x1="45.5" y1="180.6" x2="48" y2="180.6" stroke="#000" stroke-width="0.5"/><line x1="45.5" y1="190.6" x2="48" y2="190.6" stroke="#000" stroke-width="0.5"/><line x1="45.5" y1="200.6" x2="48" y2="200.6" stroke="#000" stroke-width="0.5"/><line x1="43" y1="210.6" x2="48" y2="210.6" stroke="#000" stroke-width="0.75"/><text x="41" y="214.1" text-anchor="end">1.0</text><line x1="45.5" y1="220.6" x2="48" y2="220.6" stroke="#000" stroke-width="0.5"/><line x1="45.5" y1="230.6" x2="48" y2="230.6" stroke="#000" stroke-width="0.5"/><line x1="45.5" y1="240.6" x2="48" y2="240.6" stroke="#000" stroke-width="0.5"/><line x1="45.5" y1="250.6" x2="48" y2="250.6" stroke="#000" stroke-width="0.5"/><line x1="43" y1="260.6" x2="48" y2="260.6" stroke="#000" stroke-width="0.75"/><text x="41" y="264.1" text-anchor="end">1.5</text><line x1="45.5" y1="270.6" x2="48" y2="270.6" stroke="#000" stroke-width="0.5"/><line x1="45.5" y1="280.6" x2="48" y2="280.6" stroke="#000" stroke-width="0.5"/><line x1="45.5" y1="290.6" x2="48" y2="290.6" stroke="#000" stroke-width="0.5"/><line x1="45.5" y1="300.6" x2="48" y2="300.6" stroke="#000" stroke-width="0.5"/><line x1="43" y1="310.6" x2="48" y2="310.6" stroke="#000" stroke-width="0.75"/><text x="41" y="314.1" text-anchor="end">2.0</text><line x1="45.5" y1="320.6" x2="48" y2="320.6" stroke="#000" stroke-width="0.5"/><line x1="45.5" y1="330.6" x2="48" y2="330.6" stroke="#000" stroke-width="0.5"/><line x1="45.5" y1="340.6" x2="48" y2="340.6" stroke="#000" stroke-width="0.5"/><line x1="45.5" y1="350.6" x2="48" y2="350.6" stroke="#000" stroke-width="0.5"/><line x1="43" y1="360.6" x2="48" y2="360.6" stroke="#000" stroke-width="0.75"/><text x="41" y="364.1" text-anchor="end">2.5</text><line x1="45.5" y1="370.6" x2="48" y2="370.6" stroke="#000" stroke-width="0.5"/><line x1="45.5" y1="380.6" x2="48" y2="380.6" stroke="#000" stroke-width="0.5"/><line x1="45.5" y1="390.6" x2="48" y2="390.6" stroke="#000" stroke-width="0.5"/><line x1="45.5" y1="400.6" x2="48" y2="400.6" stroke="#000" stroke-width="0.5"/><line x1="43" y1="410.6" x2="48" y2="410.6" stroke="#000" stroke-width="0.75"/><text x="41" y="414.1" text-anchor="end">3.0</text><line x1="45.5" y1="420.6" x2="48" y2="420.6" stroke="#000" stroke-width="0.5"/><line x1="45.5" y1="430.6" x2="48" y2="430.6" stroke="#000" stroke-width="0.5"/><line x1="45.5" y1="440.6" x2="48" y2="440.6" stroke="#000" stroke-width="0.5"/><line x1="45.5" y1="450.6" x2="48" y2="450.6" stroke="#000" stroke-width="0.5"/><line x1="43" y1="460.6" x2="48" y2="460.6" stroke="#000" stroke-width="0.75"/><text x="41" y="464.1" text-anchor="end">3.5</text><line x1="45.5" y1="470.6" x2="48" y2="470.6" stroke="#000" stroke-width="0.5"/><line x1="45.5" y1="480.6" x2="48" y2="480.6" stroke="#000" stroke-width="0.5"/><line x1="45.5" y1="490.6" x2="48" y2="490.6" stroke="#000" stroke-width="0.5"/><line x1="45.5" y1="500.6" x2="48" y2="500.6" stroke="#000" stroke-width="0.5"/><line x1="43" y1="510.6" x2="48" y2="510.6" stroke="#000" stroke-width="0.75"/><text x="41" y="514.1" text-anchor="end">4.0</text><line x1="45.5" y1="520.6" x2="48" y2="520.6" stroke="#000" stroke-width="0.5"/><line x1="45.5" y1="530.6" x2="48" y2="530.6" stroke="#000" stroke-width="0.5"/><line x1="45.5" y1="540.6" x2="48" y2="540.6" stroke="#000" stroke-width="0.5"/><line x1="45.5" y1="550.6" x2="48" y2="550.6" stroke="#000" stroke-width="0.5"/><line x1="43" y1="560.6" x2="48" y2="560.6" stroke="#000" stroke-width="0.75"/><text x="41" y="564.1" text-anchor="end">4.5</text><line x1="45.5" y1="570.6" x2="48" y2="570.6" stroke="#000" stroke-width="0.5"/><line x1="45.5" y1="580.6" x2="48" y2="580.6" stroke="#000" stroke-width="0.5"/><line x1="45.5" y1="590.6" x2="48" y2="590.6" stroke="#000" stroke-width="0.5"/><line x1="45.5" y1="600.6" x2="48" y2="600.6" stroke="#000" stroke-width="0.5"/><line x1="43" y1="610.6" x2="48" y2="610.6" stroke="#000" stroke-width="0.75"/><text x="41" y="608.6" text-anchor="end">5.0</text><rect x="48" y="110.6" width="40" height="500" fill="url(#blv1x12prz-SM)"/><text x="99" y="121.1">Brown silty SAND</text><line x1="48" y1="110.6" x2="88" y2="110.6" stroke="#000" stroke-width="0.75"/><line x1="88" y1="110.6" x2="790" y2="110.6" stroke="#000" stroke-width="0.75"/><line x1="48" y1="610.6" x2="88" y2="610.6" stroke="#000" stroke-width="0.75"/><line x1="88" y1="610.6" x2="790" y2="610.6" stroke="#000" stroke-width="0.75"/><rect x="10" y="50.6" width="780" height="560" fill="none" stroke="#000" stroke-width="1"/><line x1="10" y1="110.6" x2="790" y2="110.6" stroke="#000" stroke-width="1"/><line x1="48" y1="50.6" x2="48" y2="610.6" stroke="#000" stroke-width="0.75"/><line x1="88" y1="50.6" x2="88" y2="610.6" stroke="#000" stroke-width="0.75"/><text x="10" y="630.6" font-weight="bold">Legend</text><rect x="10" y="638.6" width="30" height="16" fill="url(#blv1x12prz-legend-SM)" stroke="#000" stroke-width="0.75"/><text x="48" y="650.6">SM – Silty sand</text></svg>
